Coordinates
version=1
nRows=19
nColumns=34
inDegrees=no

Units are S.I. units (second, meters, Newtons, ...)
If the header above contains a line with 'inDegrees', this indicates whether rotational values are in degrees (yes) or radians (no).

endheader
time	pelvis_tilt	pelvis_list	pelvis_rotation	pelvis_tx	pelvis_ty	pelvis_tz	hip_flexion_r	hip_adduction_r	hip_rotation_r	knee_angle_r	ankle_angle_r	subtalar_angle_r	mtp_angle_r	hip_flexion_l	hip_adduction_l	hip_rotation_l	knee_angle_l	ankle_angle_l	subtalar_angle_l	mtp_angle_l	lumbar_extension	lumbar_bending	lumbar_rotation	arm_flex_r	arm_add_r	arm_rot_r	elbow_flex_r	pro_sup_r	arm_flex_l	arm_add_l	arm_rot_l	elbow_flex_l	pro_sup_l
3.2	-0.271849	-0.063247	-0.0759688	-0.174235	0.929007	-0.495004	0.364415	0.0492294	-0.283025	0.2383	0.325035	0.0920457	-0.100013	0.247477	-0.342482	-0.323894	0.0577277	0.141486	0.258853	-0.100025	0.137902	0.149551	0.0414706	-0.234149	-0.361163	0.146442	2.22563	1.91997	-0.163007	-0.256364	0.404682	2.04955	2.06586
3.21	-0.273608	-0.0629862	-0.0752592	-0.174602	0.928743	-0.494625	0.369084	0.0487373	-0.283821	0.243184	0.326007	0.089765	-0.100013	0.251024	-0.342813	-0.322473	0.0592883	0.141175	0.257978	-0.100025	0.13735	0.148391	0.0407896	-0.227979	-0.36176	0.149567	2.22662	1.92006	-0.156207	-0.256156	0.408298	2.05072	2.0658
3.22	-0.275586	-0.0627942	-0.0742233	-0.174989	0.928461	-0.494243	0.37381	0.0483198	-0.284635	0.247699	0.326703	0.0871125	-0.100013	0.255117	-0.343218	-0.320728	0.0611364	0.140839	0.257238	-0.100025	0.136947	0.147262	0.0396753	-0.22162	-0.362121	0.153105	2.22774	1.92034	-0.149298	-0.255918	0.412116	2.05208	2.06575
3.23	-0.277821	-0.0626565	-0.0728611	-0.175392	0.928158	-0.493862	0.3786	0.0479636	-0.28548	0.251786	0.327126	0.0841387	-0.100013	0.259782	-0.343677	-0.318663	0.063246	0.140453	0.256628	-0.100025	0.136747	0.14617	0.0381353	-0.215117	-0.362266	0.157099	2.22899	1.9207	-0.142286	-0.255652	0.41617	2.05363	2.06572
3.24	-0.280324	-0.0625543	-0.0711959	-0.175812	0.927833	-0.493485	0.383473	0.0476425	-0.286377	0.255448	0.327308	0.0809243	-0.100013	0.265021	-0.344169	-0.316303	0.0656113	0.14002	0.256119	-0.100025	0.136759	0.145116	0.0362393	-0.208516	-0.362234	0.161553	2.23037	1.92098	-0.135122	-0.255354	0.420524	2.05536	2.0657
3.25	-0.283078	-0.0624707	-0.0692661	-0.176253	0.927487	-0.493115	0.388441	0.0473254	-0.287345	0.258734	0.327298	0.0775529	-0.100013	0.270821	-0.344674	-0.313687	0.0682563	0.139572	0.255669	-0.100025	0.136942	0.144092	0.0341074	-0.201867	-0.362073	0.166421	2.2319	1.921	-0.127702	-0.255022	0.425265	2.05725	2.06569
3.26	-0.286044	-0.0623912	-0.067118	-0.17672	0.927121	-0.492755	0.393519	0.0469798	-0.288389	0.261732	0.327152	0.0740864	-0.100013	0.277161	-0.345182	-0.310871	0.0712409	0.139167	0.255243	-0.100025	0.137227	0.143091	0.0318814	-0.195207	-0.361841	0.171625	2.2336	1.92053	-0.119896	-0.25466	0.430481	2.05925	2.0657
3.27	-0.289181	-0.0623004	-0.064803	-0.177221	0.926737	-0.492406	0.398739	0.0465733	-0.289496	0.264563	0.326926	0.0705437	-0.100013	0.284036	-0.34569	-0.307935	0.0746637	0.138883	0.254844	-0.100025	0.137533	0.142102	0.0296981	-0.188551	-0.361597	0.177087	2.23553	1.91925	-0.111574	-0.254267	0.436243	2.06134	2.06573
3.28	-0.292455	-0.0621793	-0.0623794	-0.177765	0.926335	-0.492069	0.404158	0.0460729	-0.290625	0.267385	0.326669	0.0668966	-0.100013	0.291461	-0.346201	-0.304989	0.0786511	0.138812	0.254512	-0.100025	0.137786	0.141115	0.0276794	-0.181885	-0.361395	0.182751	2.23773	1.91677	-0.102632	-0.253848	0.442593	2.06345	2.06576
3.29	-0.29584	-0.0620047	-0.0599142	-0.178359	0.925914	-0.491744	0.409858	0.0454462	-0.29171	0.270391	0.326434	0.06308	-0.100013	0.299455	-0.346718	-0.30216	0.083338	0.139048	0.254305	-0.100025	0.137922	0.140117	0.0259289	-0.175162	-0.361291	0.18859	2.24023	1.91275	-0.092989	-0.253409	0.449552	2.06555	2.0658
3.3	-0.299316	-0.0617515	-0.0574808	-0.179012	0.925473	-0.491428	0.415941	0.0446626	-0.292665	0.273795	0.32627	0.0590081	-0.100013	0.308034	-0.347246	-0.299565	0.0888439	0.13967	0.254258	-0.100025	0.137887	0.139095	0.0245267	-0.168308	-0.361339	0.194603	2.24304	1.90705	-0.082601	-0.252959	0.457124	2.06759	2.06583
3.31	-0.302871	-0.0613969	-0.0551488	-0.17973	0.92501	-0.491121	0.42251	0.0436954	-0.293408	0.277819	0.32623	0.0545928	-0.100013	0.317202	-0.347784	-0.297269	0.0952552	0.14073	0.254353	-0.100025	0.137641	0.138038	0.0235154	-0.16122	-0.361596	0.200825	2.24613	1.8998	-0.0714599	-0.252512	0.465291	2.06953	2.06587
3.32	-0.306495	-0.0609215	-0.0529718	-0.180517	0.92452	-0.490822	0.429659	0.0425212	-0.293869	0.282663	0.326359	0.0497597	-0.100013	0.326948	-0.348325	-0.295264	0.102617	0.142246	0.254496	-0.100025	0.137157	0.13694	0.0228904	-0.153773	-0.362123	0.207323	2.24942	1.89148	-0.0595977	-0.252084	0.474009	2.07136	2.0659
3.33	-0.310176	-0.060309	-0.0509799	-0.181376	0.923999	-0.49053	0.437452	0.0411181	-0.294008	0.288488	0.326696	0.0444613	-0.100013	0.337246	-0.34885	-0.293466	0.110934	0.144194	0.25452	-0.100025	0.13641	0.135793	0.0226059	-0.145833	-0.36297	0.21418	2.25282	1.88286	-0.0470761	-0.251691	0.483205	2.07308	2.06592
3.34	-0.313892	-0.0595448	-0.0491803	-0.182306	0.923445	-0.490247	0.445918	0.0394675	-0.293801	0.2954	0.327264	0.0386767	-0.100013	0.34805	-0.349334	-0.291745	0.120177	0.146529	0.254223	-0.100025	0.135371	0.134585	0.0225924	-0.137269	-0.364176	0.221475	2.25619	1.87488	-0.0339697	-0.251345	0.492789	2.0747	2.06594
3.35	-0.317617	-0.0586136	-0.0475641	-0.183306	0.922852	-0.489974	0.455046	0.0375585	-0.293227	0.303447	0.328065	0.0323869	-0.100013	0.359301	-0.349747	-0.289969	0.130297	0.149197	0.253417	-0.100025	0.134009	0.133294	0.0227701	-0.127963	-0.365757	0.229286	2.25944	1.86825	-0.0203591	-0.251052	0.502646	2.07625	2.06594
3.36	-0.321328	-0.0574939	-0.046112	-0.184374	0.922213	-0.48971	0.464808	0.0353866	-0.292248	0.312618	0.329077	0.0255514	-0.100013	0.370942	-0.350055	-0.288039	0.141227	0.152149	0.251963	-0.100025	0.132297	0.131882	0.0230485	-0.117807	-0.367712	0.2377	2.2625	1.86335	-0.00633778	-0.250809	0.512633	2.07775	2.06591
3.37	-0.325021	-0.0561527	-0.0447984	-0.185507	0.921522	-0.489454	0.475173	0.0329477	-0.290807	0.322863	0.33026	0.0180939	-0.100013	0.382928	-0.350217	-0.285912	0.152897	0.155345	0.249801	-0.100025	0.130234	0.130299	0.0233243	-0.106703	-0.370021	0.246819	2.26534	1.8602	0.00798673	-0.250619	0.522587	2.07925	2.06585
3.38	-0.328713	-0.0545455	-0.0435931	-0.186703	0.920766	-0.489206	0.48613	0.030232	-0.288833	0.334119	0.331576	0.0099094	-0.100013	0.395238	-0.350188	-0.283606	0.165238	0.15876	0.24697	-0.100025	0.127841	0.128483	0.023494	-0.0945639	-0.372648	0.256739	2.26795	1.85853	0.0225118	-0.250497	0.532358	2.08081	2.06575
